<?xml version="1.0" standalone="no"?>
<!DOCTYPE svg PUBLIC "-//W3C//DTD SVG 1.1//EN" "http://www.w3.org/Graphics/SVG/1.1/DTD/svg11.dtd" >
<svg xmlns="http://www.w3.org/2000/svg">
<metadata></metadata>
<defs>
<font id="tanek-krisregular" horiz-adv-x="1202" >
<font-face units-per-em="2048" ascent="1638" descent="-410" />
<missing-glyph horiz-adv-x="552" />
<glyph horiz-adv-x="0" />
<glyph unicode="&#xd;" horiz-adv-x="0" />
<glyph unicode=" "  horiz-adv-x="552" />
<glyph unicode="&#x09;" horiz-adv-x="552" />
<glyph unicode="&#xa0;" horiz-adv-x="552" />
<glyph unicode="!" horiz-adv-x="452" d="M102 0v297l248 -2v-295h-248zM106 1567h238q0 -78 -2 -171t-5 -192.5t-7 -203t-8 -197.5q-10 -223 -23 -457h-143q-14 233 -25 457q-4 94 -9 197.5t-8 203t-5.5 192.5t-2.5 171z" />
<glyph unicode="&#x22;" horiz-adv-x="745" d="M102 1141v88h74q23 0 34 14t15 34.5t4 42v38.5h-112v244h209v-80q0 -39 1 -90.5t1 -112.5q0 -18 -2 -48t-13.5 -59.5t-34 -50t-63.5 -20.5h-113zM418 1141v88h74q23 0 34 14t16 34.5t5 42v38.5h-115v244h209v-80q0 -39 1 -90.5t1 -112.5q0 -18 -2 -48t-13.5 -59.5 t-34 -50t-63.5 -20.5h-112z" />
<glyph unicode="#" d="M51 401l33 191h209l37 209h-209l35 192h209l65 373h184l-65 -373h215l67 373h185l-66 -373h201l-35 -192h-198l-37 -209h200l-34 -193h-201l-70 -399h-186l72 399h-220l-69 -399h-189l72 401h-205zM477 592h217l35 209h-215z" />
<glyph unicode="$" horiz-adv-x="1026" d="M102 299v227h269v-184q0 -37 22.5 -82t69.5 -65v475q-59 35 -120.5 71.5t-114 86t-85 115t-32.5 159.5v196q0 43 15 93.5t55 95.5t108.5 76.5t173.5 38.5v176h84v-179q102 -6 168.5 -39.5t106.5 -79.5t56.5 -98.5t16.5 -99.5v-211h-272v193q0 29 -15.5 59.5t-60.5 42.5 v-430q59 -41 125.5 -82t122 -88t92.5 -104.5t37 -131.5v-231q0 -59 -22.5 -117.5t-69 -106.5t-118 -80t-167.5 -36v-192h-84v194q-86 8 -153.5 40t-113.5 78t-70 103.5t-24 116.5zM375 1147q0 -43 23.5 -79t64.5 -71v371q-88 -18 -88 -98v-123zM547 190q47 12 71.5 48 t24.5 67v137q0 55 -26.5 95.5t-69.5 74.5v-422z" />
<glyph unicode="%" horiz-adv-x="1579" d="M66 1006q0 72 20 138t60 118.5t99.5 84t139.5 31.5q78 0 131 -24.5t89 -62.5t55.5 -83t29.5 -86t12.5 -72.5t2.5 -41.5q0 -102 -29 -176t-75 -121t-103.5 -71t-114.5 -24q-82 0 -141.5 35t-98.5 90.5t-58 125t-19 139.5zM252 1006q0 -45 6 -88.5t20.5 -77t39 -55 t63.5 -21.5q51 0 78.5 29.5t41 69.5t15.5 80t2 63q0 33 -5 72.5t-18.5 74.5t-40 57.5t-69.5 22.5q-49 0 -76.5 -27.5t-40 -65.5t-14.5 -76t-2 -58zM293 0l848 1366h149l-848 -1366h-149zM877 356q0 109 32.5 184.5t81.5 122t105.5 67t105.5 20.5q27 0 79 -12.5t104.5 -53.5 t91.5 -119t39 -209q0 -90 -27 -158.5t-72 -115.5t-104.5 -70.5t-122.5 -23.5q-70 0 -127 28.5t-99 77.5t-64.5 117t-22.5 145zM1061 369q0 -233 133 -234q51 0 78.5 33t41 73t15.5 76.5t2 42.5q0 31 -2 73t-14 79t-39 63.5t-74 26.5q-49 0 -77.5 -27.5t-43 -65.5t-17.5 -78 t-3 -62z" />
<glyph unicode="&#x26;" horiz-adv-x="1228" d="M102 467q0 152 76 275.5t193 193.5q-10 25 -25.5 65.5t-32 90t-28 102.5t-11.5 102q0 76 27 133.5t70 95.5t97 57.5t110 19.5q84 0 149.5 -28t109.5 -73t67.5 -99t23.5 -108q0 -78 -17.5 -135t-49.5 -104t-78 -89t-103 -92l160 -362q14 53 15 133t-1 166h205 q0 -88 -3 -171t-11.5 -154.5t-20.5 -129t-31 -94.5q8 -14 43 -36.5t88 -22.5v-82q0 -35 1 -69t1 -52q-66 -6 -110.5 0t-77.5 20.5t-56.5 31t-43.5 28.5q-43 -45 -109.5 -71.5t-177.5 -26.5q-102 0 -185 32.5t-141.5 95t-90.5 152.5t-32 205zM358 461q0 -49 16.5 -95.5 t46.5 -83t74 -58t99 -21.5q18 0 35.5 9t32.5 19q16 13 32 29q-55 115 -102 211q-20 41 -40 81t-37 72.5t-28.5 56.5t-15.5 30q-41 -29 -63.5 -58.5t-32.5 -62.5t-13.5 -65.5t-3.5 -63.5zM518 1290q0 -23 7 -54.5t17.5 -63t21.5 -57t22 -38.5q41 25 71.5 81.5t30.5 113.5 q0 14 -4 33.5t-15.5 36t-28.5 28.5t-42 12q-37 0 -58.5 -28.5t-21.5 -63.5z" />
<glyph unicode="'" horiz-adv-x="389" d="M102 1141v88h74q23 0 34 14t15 34.5t4 42v38.5h-112v244h209v-80q0 -39 1 -90.5t1 -112.5q0 -18 -2 -48t-13.5 -59.5t-34 -50t-63.5 -20.5h-113z" />
<glyph unicode="(" horiz-adv-x="477" d="M102 342v846q0 115 51.5 193.5t112.5 127.5q72 57 166 93v-99q-39 -39 -67 -92q-27 -45 -47.5 -108.5t-20.5 -141.5v-794q0 -68 21.5 -125.5t48.5 -98.5q31 -49 69 -88v-94q-94 14 -168 62q-63 41 -114.5 115.5t-51.5 203.5z" />
<glyph unicode=")" horiz-adv-x="477" d="M41 -39v94q39 39 70 88q27 41 49 98.5t22 125.5v794q0 78 -21.5 141.5t-45.5 108.5q-31 53 -68 92l-2 99q92 -35 164 -93q61 -49 113.5 -127.5t52.5 -193.5v-846q0 -66 -14.5 -116t-38 -89t-54 -66.5t-61.5 -47.5q-74 -47 -166 -62z" />
<glyph unicode="*" horiz-adv-x="1105" d="M119 997l45 140l342 -138l-27 367h148l-27 -367l342 138l45 -140l-356 -90l235 -280l-118 -86l-195 311l-195 -311l-120 86l237 280z" />
<glyph unicode="+" d="M109 594v190h397v330h190v-330h396v-190h-396v-391h-190v391h-397z" />
<glyph unicode="," horiz-adv-x="462" d="M102 -18v155v125h258v-360q0 -37 -6 -74t-24.5 -64.5t-52 -45t-89.5 -17.5h-79v94h65q29 0 43 14.5t20.5 39t6.5 58.5v75h-142z" />
<glyph unicode="-" horiz-adv-x="608" d="M104 502v203h29h373v-203h-402z" />
<glyph unicode="." horiz-adv-x="452" d="M102 -16v292l248 3v-297z" />
<glyph unicode="/" horiz-adv-x="915" d="M102 -35l541 1637h170l-528 -1637h-183z" />
<glyph unicode="0" horiz-adv-x="980" d="M102 303v924q0 100 30 170.5t83 113.5t126 62.5t161 19.5q74 0 142.5 -22.5t120.5 -65.5t83 -108.5t31 -151.5v-938q0 -76 -30 -138.5t-82 -107.5t-120.5 -70.5t-144.5 -25.5q-82 0 -155 24.5t-127 69.5t-86 107.5t-32 136.5zM381 324q0 -53 22.5 -91t88.5 -38 q59 0 82.5 36.5t23.5 92.5v925q0 51 -34 79t-77 28q-37 0 -71.5 -31t-34.5 -84v-917z" />
<glyph unicode="1" horiz-adv-x="622" d="M61 1308.5v45.5q37 0 73 22.5t66.5 54t53 68.5t31.5 68h235v-1567h-280l2 1192q-27 -14 -58 -23q-27 -10 -58.5 -16t-62.5 -6v49t-1 57.5t-1 55z" />
<glyph unicode="2" horiz-adv-x="948" d="M102 0v195q0 90 35 166.5t86 145t111.5 131t112 124t86 127t34.5 139.5v242q0 41 -25.5 67.5t-72.5 26.5q-53 0 -75.5 -22.5t-22.5 -73.5v-307h-258v288q0 74 23.5 137.5t67.5 110.5t109.5 73.5t151.5 26.5q68 0 135.5 -18t121.5 -59t88 -106.5t34 -160.5l2 -268 q2 -80 -32 -153.5t-87 -140t-115.5 -128t-117 -118t-90 -109.5t-35.5 -103l471 9v-242h-738z" />
<glyph unicode="3" horiz-adv-x="960" d="M102 244v250h267v-205q0 -45 31.5 -68.5t76.5 -23.5q41 0 71 28.5t30 59.5v325q0 27 -13.5 45.5t-33 28.5t-39 15.5t-31.5 5.5h-117l-2 231l115 2q23 0 42 4t34.5 16.5t23.5 34t8 56.5v204q0 51 -20.5 80t-75.5 29t-75.5 -28.5t-20.5 -71.5l2 -185h-260v217 q0 76 27.5 134.5t75.5 96.5t112.5 57.5t138.5 19.5q68 0 133.5 -19.5t117.5 -56.5t84 -92.5t32 -128.5v-291q0 -41 -15.5 -73t-39 -54.5t-50 -36.5t-49.5 -16v-3v-4q96 -33 136 -108.5t40 -155.5v-303q0 -63 -27.5 -118.5t-79 -95.5t-121 -63.5t-153.5 -23.5 q-68 0 -134.5 20.5t-120.5 58.5t-87 90t-33 116z" />
<glyph unicode="4" horiz-adv-x="878" d="M41 307v174l410 1086h247l-2 -1059h142v-205h-138v-303h-258v307h-401zM274 514h175v528z" />
<glyph unicode="5" horiz-adv-x="960" d="M102 324v96q0 20 2 35h273l2 -140q0 -57 23.5 -89.5t78.5 -32.5q31 0 51.5 11t33 28.5t16.5 39t4 41.5v344q0 25 -1 53.5t-10.5 52t-31 39t-62.5 15.5q-53 0 -77.5 -32.5t-24.5 -118.5h-248v897h660v-228h-414v-387q18 25 47 45q25 16 63.5 31.5t94.5 15.5 q129 0 201.5 -77.5t74.5 -237.5v-178.5v-106.5v-59.5v-34.5v-32.5v-55.5q0 -86 -37 -143.5t-92 -90t-121.5 -46t-128.5 -13.5q-23 0 -85 8.5t-126.5 43t-115 106.5t-50.5 201z" />
<glyph unicode="6" horiz-adv-x="976" d="M102 336v960q0 70 29 126.5t78 96.5t115.5 61.5t142.5 21.5q70 0 138.5 -18.5t121.5 -56.5t86 -95.5t33 -135.5l2 -196h-275v147q0 59 -22.5 91t-79.5 32q-59 0 -76.5 -37t-17.5 -84v-387q29 41 85 78t113 37q88 0 146.5 -28.5t92.5 -78t47 -115t13 -137.5v-319 q0 -78 -30.5 -140.5t-82.5 -105.5t-120 -65.5t-143 -22.5q-178 0 -287 92.5t-109 278.5zM385 317q0 -51 20.5 -87.5t90.5 -36.5q63 0 81.5 36.5t18.5 89.5v289q0 14 -3 37t-14.5 43.5t-33 35.5t-58.5 15q-63 0 -82.5 -40t-19.5 -87v-295z" />
<glyph unicode="7" horiz-adv-x="792" d="M0 1348v219h750v-72q0 -31 1 -69.5t1 -73.5q-53 -98 -111.5 -247t-108 -327t-82 -377.5t-32.5 -400.5h-273q0 92 20.5 246.5t69 339t127 383t195.5 379.5h-557z" />
<glyph unicode="8" horiz-adv-x="970" d="M102 299v309q0 63 31 123t109 94q-39 14 -64.5 41t-42 58.5t-24 66.5t-7.5 66v248q0 68 30 123t82 94t121 59.5t148 20.5q74 0 140.5 -21.5t116 -60.5t79 -94.5t29.5 -122.5v-250q0 -29 -7 -62t-23.5 -65.5t-43 -60t-65.5 -44.5q35 -12 64.5 -36.5t50 -55.5t31.5 -66.5 t11 -68.5v-307q0 -109 -49 -172.5t-113.5 -96t-129 -43t-97.5 -10.5q-37 0 -100.5 11.5t-124.5 46t-106.5 101t-45.5 175.5zM381 336q0 -25 4 -48.5t16.5 -42t34 -29.5t56.5 -11q31 0 51 12t31.5 29.5t15.5 36t4 30.5v291q0 59 -31 82t-76 23t-75.5 -19.5t-30.5 -81.5v-272z M381 1057q0 -47 22.5 -82t83.5 -35q41 0 70 28.5t27 82.5l-2 200q0 55 -25 89t-70 34q-53 0 -79.5 -30.5t-26.5 -83.5v-203z" />
<glyph unicode="9" horiz-adv-x="956" d="M102 1214.5v98.5q0 78 36 132t91.5 89t122 51.5t127.5 16.5q57 0 124 -18.5t122 -55.5t92 -95.5t37 -138.5v-997q0 -102 -36 -166.5t-88 -101.5t-114.5 -50.5t-113.5 -13.5q-55 0 -122 12.5t-123 44t-95 89t-39 147.5v205h264v-164q0 -53 28.5 -77.5t76.5 -24.5 q31 0 63.5 23.5t32.5 82.5v451q-8 -27 -26.5 -54.5t-46.5 -51t-62.5 -38t-73.5 -14.5q-55 0 -104.5 14.5t-87 44t-60.5 77.5t-23 116v100.5t-1 133t-1 133zM375 944q0 -53 18.5 -89t83.5 -36q66 0 86.5 39t20.5 88v293q0 16 -4.5 37.5t-15.5 40t-32.5 32t-56.5 13.5 q-37 0 -57.5 -12.5t-29.5 -31t-10 -38.5t-1 -39z" />
<glyph unicode=":" horiz-adv-x="462" d="M102 889v287h258v-287h-258zM106 -18v309h254v-309h-254z" />
<glyph unicode=";" horiz-adv-x="468" d="M102 -186h58q23 0 36 13t20 32.5t9 40t2 37.5q0 23 -1 34t-3 15t-5 5t-5 5h-104v291h249v-383q0 -195 -206 -195h-50v105zM104 889v295h263v-293z" />
<glyph unicode="&#x3c;" d="M158 584v196l889 441v-230l-644 -309l644 -311v-230z" />
<glyph unicode="=" d="M96 434v191h1010v-191h-1010zM96 733v191h1010v-191h-1010z" />
<glyph unicode="&#x3e;" d="M158 141v232l643 309l-643 311v228l889 -443v-194z" />
<glyph unicode="?" horiz-adv-x="845" d="M102 1083v215q0 23 7.5 73t40 101.5t100 90.5t186.5 39q125 0 195.5 -37t104.5 -85t41 -97.5t7 -73.5v-150q0 -70 -22.5 -126t-55 -105t-71.5 -92t-72 -87t-55.5 -91.5t-22.5 -102.5v-190h-223v258q0 94 41 163.5t90 130t90 117t41 125.5v121q-4 27 -12 49 q-10 18 -26.5 34.5t-47.5 16.5q-55 0 -66.5 -34.5t-11.5 -79.5v-183h-258zM246 0v297h248v-297h-248z" />
<glyph unicode="@" horiz-adv-x="1200" d="M98 365v731q0 96 42 161.5t113 106.5t160 59.5t185 18.5q109 0 201 -20.5t159.5 -61.5t105.5 -106.5t38 -153.5v-514q0 -37 -18.5 -87t-52.5 -97.5t-84 -80t-113 -32.5q-55 0 -110.5 34.5t-70.5 90.5q-6 -4 -14 -18.5t-21.5 -30t-35 -28.5t-54.5 -13q-88 0 -124.5 46 t-36.5 111v99q0 57 26.5 93t66.5 63.5t88 54t91 67.5q0 14 1 31.5t1 40.5t-8 45t-47 22q-35 0 -43 -22.5t-8 -46.5v-62h-158v52q0 41 10 79.5t36 68.5t67.5 47t107.5 17q59 0 98 -20t62.5 -51t33 -69t9.5 -72v-480q0 -18 15 -27.5t28 -9.5q8 0 17 8.5t16.5 30t11.5 58.5 t4 96v493q0 31 -19.5 62t-58.5 56.5t-95 42t-130 16.5q-68 0 -124 -15.5t-96 -40t-61.5 -54.5t-21.5 -60q0 -172 1 -352.5t1 -352.5q0 -29 24.5 -58.5t67.5 -52t98.5 -37t116.5 -14.5v-184q-76 0 -163 16.5t-161.5 54.5t-124 99t-49.5 152zM524 543q0 -41 11.5 -69t48.5 -28 q23 0 35 12.5t17 31t6 41t1 42.5v146q-29 -18 -50.5 -29.5t-36.5 -28t-23.5 -43t-8.5 -75.5z" />
<glyph unicode="A" horiz-adv-x="948" d="M20 0l308 1567h311l289 -1567h-266l-54 276h-270l-53 -276h-265zM383 506h190l-96 631z" />
<glyph unicode="B" horiz-adv-x="1015" d="M102 0v1567h463q160 0 239 -85t79 -214v-209q0 -59 -18.5 -98t-45 -64t-56.5 -37t-52 -14v-10q33 0 68.5 -17.5t65 -50.5t49 -80t19.5 -108v-291q0 -55 -23.5 -107.5t-64.5 -92.5t-100 -64.5t-129 -24.5h-494zM365 729l2 -498h141q72 0 97.5 31t25.5 111v200 q0 86 -28 121t-91 35h-147zM367 958h125q66 0 92 20.5t26 92.5v166q0 66 -31.5 88.5t-86.5 22.5h-125v-390z" />
<glyph unicode="C" horiz-adv-x="970" d="M82 342v903q0 162 100.5 259.5t290.5 97.5q100 0 175 -28t125 -75t74.5 -108.5t24.5 -126.5v-279h-264v191q0 25 -1 57.5t-12 60t-38 47t-78 19.5q-49 0 -74.5 -18.5t-36 -47t-10.5 -64.5v-69q3 -134 3 -265q0 -66 -1 -130q-2 -194 -2 -399q0 -33 6.5 -63t20.5 -53.5 t40 -37.5t64 -14q41 0 67 16t39 41t18 52.5t5 49.5v254h271v-266q0 -106 -33 -180t-90 -119t-132 -65.5t-157 -20.5q-68 0 -138.5 22.5t-127.5 68.5t-93 118t-36 172z" />
<glyph unicode="D" horiz-adv-x="1013" d="M102 0v1567h404q18 0 55 -3t82 -14.5t92 -34t86 -61.5t63.5 -98.5t24.5 -143.5v-391v-151.5t1 -138t1 -109v-64.5q0 -76 -23.5 -141t-68.5 -113.5t-110.5 -76t-149.5 -27.5h-457zM367 227h157q41 0 80 35t39 100v771q0 204 -154 204h-2h-120v-1110z" />
<glyph unicode="E" horiz-adv-x="892" d="M102 0v1567h699l2 -238h-426v-377l266 2v-231h-266v-494l454 2v-231h-729z" />
<glyph unicode="F" horiz-adv-x="831" d="M102 0v1567h689v-228h-422v-399l262 2l2 -221h-260v-721h-271z" />
<glyph unicode="G" horiz-adv-x="1028" d="M102 303v920q0 86 30 156.5t83 119.5t128 76t165 27q86 0 159.5 -25t129 -71t86 -113.5t30.5 -151.5v-207h-270v211q0 37 -12.5 61.5t-30.5 39t-41.5 20.5t-44.5 6q-23 0 -46.5 -6t-42.5 -21.5t-31.5 -39t-12.5 -60.5v-917q0 -53 31.5 -94t113.5 -41q66 0 98.5 37.5 t32.5 97.5l-2 307h-149v225h420v-860h-242v88q-10 -14 -23.5 -35.5t-39 -41t-66.5 -33t-102 -13.5q-106 0 -175 30t-108 78t-53.5 108.5t-14.5 121.5z" />
<glyph unicode="H" horiz-adv-x="1030" d="M102 0v1567h273v-615l280 2v613h273v-1567h-273v727h-282v-727h-271z" />
<glyph unicode="I" horiz-adv-x="477" d="M102 0v1567h273v-1567h-273z" />
<glyph unicode="J" horiz-adv-x="636" d="M0 0v229h152q25 0 44 3.5t34.5 15.5t23.5 37.5t8 70.5v760v451h273v-1288q0 -66 -21.5 -117t-58.5 -87t-87.5 -55.5t-109.5 -19.5h-258z" />
<glyph unicode="K" horiz-adv-x="1007" d="M102 0v1567h267v-643l258 643h288l-303 -740l355 -827h-297l-293 737l2 -737h-277z" />
<glyph unicode="L" horiz-adv-x="839" d="M102 0v1567h271v-1338h426v-229h-697z" />
<glyph unicode="M" horiz-adv-x="1300" d="M102 1567h371l180 -910l156 910h389l-4 -1567h-248v1016l-194 -1016h-193l-213 1026v-1026h-242z" />
<glyph unicode="N" horiz-adv-x="1011" d="M102 0v1567h301l252 -760l2 760h252v-1567l-270 2l-291 952l-2 -954h-244z" />
<glyph unicode="O" horiz-adv-x="1003" d="M82 324v893q0 106 35 179.5t93 119t134 66t156 20.5q92 0 168.5 -23t133 -69t88.5 -117.5t32 -169.5v-887q0 -111 -40 -182.5t-102.5 -113.5t-137.5 -58.5t-142 -16.5q-63 0 -137 18.5t-136.5 59.5t-103.5 109.5t-41 171.5zM367 1021q0 -118 1 -240t1 -239.5v-211.5 q0 -33 12 -57.5t31.5 -42t44 -25.5t47.5 -8q45 0 89 30.5t44 96.5v905q0 66 -43 100.5t-92 34.5q-23 0 -47.5 -7t-44 -23.5t-31.5 -41t-12 -57.5v-214z" />
<glyph unicode="P" horiz-adv-x="923" d="M102 0v1567h461q80 0 139.5 -31t99.5 -81t60.5 -113.5t20.5 -127.5v-301q0 -53 -19.5 -105t-58.5 -93t-96.5 -66.5t-133.5 -25.5h-210v-623h-263zM365 844h133q45 0 68.5 22.5t33.5 51t12 57.5t2 41v36.5t1 58.5t1 64.5v55.5q0 108 -116 108h-2h-133v-495z" />
<glyph unicode="Q" horiz-adv-x="995" d="M82 330v913q0 111 46 181.5t112.5 109.5t138.5 53.5t121 14.5q53 0 124.5 -17.5t136 -59.5t108.5 -114t44 -182v-899q0 -117 -37.5 -189.5t-89 -113.5t-104.5 -56.5t-84 -15.5q0 -49 20.5 -92t51 -76t64.5 -53.5t61 -24.5l-203 -145q-37 31 -73 80t-64.5 105t-46 113.5 t-17.5 102.5q-41 0 -95 18.5t-101.5 61.5t-80 112.5t-32.5 172.5zM362 330q0 -66 37 -101.5t103 -35.5t100.5 34.5t34.5 100.5v901q0 39 -13.5 64.5t-33 41t-44 21.5t-48.5 6q-25 0 -49.5 -5t-43 -19.5t-31 -40t-12.5 -64.5v-903z" />
<glyph unicode="R" horiz-adv-x="978" d="M102 0v1567h455q55 0 116.5 -13.5t112 -48.5t83 -96t32.5 -156v-286q0 -96 -26.5 -148.5t-59.5 -77.5q-37 -29 -84 -32l207 -709h-270l-189 688h-100l-2 -688h-275zM371 915h123q43 0 70.5 13.5t43 34t21.5 45t6 47.5v145q0 135 -127 135h-137v-420z" />
<glyph unicode="S" horiz-adv-x="987" d="M82 346v176h276v-186q0 -51 31 -95t100 -44q76 0 104 41t28 94v26v103q-2 55 -42 98t-98.5 83t-126 82t-126 94t-97.5 119t-39 155v190q0 70 32 129t85 101t122.5 66t147.5 24q74 0 145.5 -21.5t128 -62.5t92.5 -101.5t36 -136.5v-221h-273v84q0 33 1 62.5t1 35.5 q0 12 -3 32.5t-16 41t-39 35t-71 14.5q-33 0 -55.5 -12.5t-35.5 -29.5t-19 -36.5t-6 -36.5v-90q0 -72 39.5 -122t100 -92t130.5 -82t130 -89t100 -114.5t40 -159.5v-195q0 -90 -39 -153.5t-99 -105.5t-135 -61.5t-145 -19.5q-86 0 -159.5 22.5t-129 69.5t-86 119t-30.5 170z " />
<glyph unicode="T" horiz-adv-x="960" d="M41 1331v236h879v-232h-297v-1335h-279v1331h-303z" />
<glyph unicode="U" horiz-adv-x="1030" d="M102 317v1250h273v-1241q0 -16 8 -38t25.5 -40.5t45 -30.5t66.5 -12q37 0 62.5 12t42 30.5t23.5 39t7 37.5v1243h271v-586v-223.5t1 -201.5t1 -156v-85q0 -88 -33 -153.5t-90 -109.5t-132 -65.5t-157 -21.5q-84 0 -158.5 21.5t-131 64.5t-90.5 109.5t-34 156.5z" />
<glyph unicode="V" horiz-adv-x="890" d="M20 1567h277l160 -893l153 893h260l-286 -1567h-265z" />
<glyph unicode="W" horiz-adv-x="1325" d="M20 1567h252l138 -842l133 842h231l141 -842l129 842h261l-252 -1567h-265l-126 842l-140 -842h-250z" />
<glyph unicode="X" horiz-adv-x="997" d="M20 0l334 813l-307 754h287l158 -391l143 391h299l-295 -754l338 -813h-307l-170 428l-168 -428h-312z" />
<glyph unicode="Y" horiz-adv-x="970" d="M20 1567h293l174 -557l177 557h286l-327 -891v-676h-269v676z" />
<glyph unicode="Z" horiz-adv-x="931" d="M61 0v231l484 1104h-434v232h725v-248l-486 -1081h500v-238h-789z" />
<glyph unicode="_" horiz-adv-x="1024" d="M0 -154h1024v-102h-1024v102z" />
<glyph unicode="a" horiz-adv-x="849" d="M102 215v145q0 86 39 139.5t99.5 94.5t131 80t136.5 98v107q0 16 -2 33.5t-10.5 33t-24.5 24.5t-45 9q-27 0 -42 -9t-22.5 -23.5t-9.5 -33t-2 -36.5v-93h-233v76q0 61 15 118.5t53 101.5t100.5 70t158.5 26q88 0 146.5 -30t92.5 -76t48 -101.5t14 -108.5v-524 q0 -162 3 -336h-222v115q-10 -4 -21 -25.5t-30.5 -45.5t-52.5 -43t-82 -19q-127 0 -182.5 67.5t-55.5 165.5zM338 305q0 -59 15.5 -101t68.5 -42q35 0 54.5 18.5t27.5 46t9 60t1 63.5v215q-43 -25 -75.5 -42t-55.5 -41.5t-34 -64.5t-11 -112z" />
<glyph unicode="b" horiz-adv-x="843" d="M102 1567h250v-531q16 39 41 70q23 27 56.5 48.5t87.5 21.5q63 0 106 -19.5t69.5 -52.5t38 -76t11.5 -90v-676q0 -143 -56.5 -211.5t-177.5 -68.5q-55 0 -88.5 22.5t-52 49t-27 49t-16.5 22.5l2 -125h-242zM354 262q0 -29 18.5 -52.5t63.5 -23.5q47 0 62.5 25t15.5 51 v637q0 41 -26.5 58.5t-55.5 17.5q-31 0 -54.5 -20.5t-23.5 -49.5v-643z" />
<glyph unicode="c" horiz-adv-x="835" d="M102 268v281v109.5t1 100.5t1 80.5v51.5q0 80 23 134t64.5 88t98 48.5t124.5 14.5q55 0 110.5 -14.5t99.5 -48.5t71.5 -88t27.5 -136v-187h-236v162q0 12 -2 27.5t-10 30t-23.5 24.5t-39.5 10q-43 0 -59.5 -21.5t-16.5 -76.5v-590q0 -29 22.5 -52t59.5 -23 q39 0 57.5 24.5t18.5 48.5v180h239v-192q0 -141 -86 -206.5t-233 -65.5t-229.5 66.5t-82.5 219.5z" />
<glyph unicode="d" horiz-adv-x="833" d="M82 539v370q0 37 6 83t26.5 87t57.5 69t98 28q66 0 109 -21.5t67 -46.5q29 -31 41 -68v527h244v-1567h-223v121q-6 0 -18.5 -22.5t-35 -48t-57.5 -47t-86 -21.5q-104 0 -165.5 67.5t-61.5 190.5q-2 162 -2 299zM330 295q0 -41 12 -74t68 -33q49 0 65.5 35t16.5 70v569 q0 18 -3.5 37t-11.5 34t-23.5 24.5t-41.5 9.5q-27 0 -42.5 -9.5t-24.5 -24.5t-12 -34.5t-3 -38.5v-565z" />
<glyph unicode="e" horiz-adv-x="843" d="M102 285v639q0 117 87 184.5t229 67.5q61 0 118.5 -17.5t101.5 -49.5t70.5 -79t26.5 -106v-410h-391v-209q0 -55 17.5 -81.5t62.5 -26.5q51 0 69.5 26.5t18.5 81.5v86h229v-125q0 -137 -86 -210.5t-225 -73.5q-74 0 -134 22.5t-103 63.5t-67 96t-24 121zM340 696h164v211 q0 23 -8.5 36t-20.5 20.5t-27.5 9.5t-29.5 2q-25 0 -51.5 -14.5t-26.5 -53.5v-211z" />
<glyph unicode="f" horiz-adv-x="604" d="M61 981v195h93v208q0 74 26.5 114t60 58.5t64.5 22.5t41 6q14 2 46 4t67 6q39 4 84 7v-218h-76q-43 0 -50 -25.5t-7 -55.5v-127h129q2 0 2 -32v-71q0 -45 -2 -102h-129v-971h-252v981h-97z" />
<glyph unicode="g" horiz-adv-x="884" d="M102 545v352q0 139 64.5 209t163.5 70q61 0 101 -24t63.5 -53.5t36 -53t20.5 -23.5v137h231v-1237q0 -88 -25.5 -144.5t-69.5 -90t-102.5 -47t-125.5 -13.5q-72 0 -136.5 14.5t-112.5 47t-74 87.5q-25 52 -25 127v11h249q-2 -29 7 -51q6 -18 24.5 -33.5t57.5 -15.5 q53 0 70.5 30.5t17.5 53.5v196q-18 -33 -45 -57q-23 -23 -60 -39t-90 -16q-111 0 -174.5 69.5t-63.5 204.5q-2 158 -2 289zM369 326q0 -70 11 -105t69 -35q59 0 71 36t12 102v501q0 68 -24.5 97.5t-58.5 29.5q-47 0 -63.5 -26.5t-16.5 -98.5v-501z" />
<glyph unicode="h" horiz-adv-x="854" d="M102 0v1567h234v-541q14 41 41 74q23 29 62.5 52.5t99.5 23.5q88 0 150.5 -54.5t62.5 -185.5v-936h-242v373v148.5t1 140t1 119v81.5q0 49 -20.5 80t-61.5 31q-43 0 -62.5 -26.5t-19.5 -92.5v-854h-246z" />
<glyph unicode="i" horiz-adv-x="452" d="M102 0v1176h244v-1176h-244zM102 1282v285h248v-285h-248z" />
<glyph unicode="j" horiz-adv-x="481" d="M-20 -168h71q51 0 58.5 25.5t7.5 72.5v1246h262v-1330q0 -78 -22.5 -121.5t-60.5 -65t-86 -27t-97 -5.5h-133v205zM117 1282v285h258v-285h-258z" />
<glyph unicode="k" horiz-adv-x="851" d="M102 0v1567h252v-862l174 471h265l-209 -521l227 -655h-268l-189 580v-580h-252z" />
<glyph unicode="l" horiz-adv-x="464" d="M102 0v1567h260v-1567h-260z" />
<glyph unicode="m" horiz-adv-x="1277" d="M102 0v1159h228l12 -135q12 41 39 76q23 29 61.5 52.5t100.5 23.5q70 0 107.5 -26t58.5 -54q23 -37 28 -80h11q10 43 34 80q23 29 63 54.5t109 25.5q63 0 106.5 -21.5t69 -56.5t36 -78t10.5 -86v-934h-252v877q0 35 -16.5 66.5t-61.5 31.5q-43 0 -61.5 -30t-18.5 -71 v-874h-248q-2 231 -2 420v448q0 33 -18.5 68t-59.5 35t-61.5 -31t-20.5 -68l2 -872h-256z" />
<glyph unicode="n" horiz-adv-x="856" d="M102 0v1159h220v-141q20 43 49 78q25 29 62.5 54.5t88.5 25.5q104 0 168 -67t64 -204v-905h-248v881q0 35 -21.5 62.5t-58.5 27.5q-33 0 -56.5 -24.5t-23.5 -67.5v-879h-244z" />
<glyph unicode="o" horiz-adv-x="808" d="M82 289v579q0 74 25.5 131.5t69.5 96.5t103.5 59.5t129.5 20.5q63 0 120.5 -23t101.5 -62.5t69.5 -96t25.5 -126.5v-579q0 -74 -24.5 -130.5t-68.5 -96t-103.5 -60t-127.5 -20.5q-63 0 -121.5 20.5t-102.5 59t-70.5 96t-26.5 131.5zM317 291q0 -43 25 -73t59 -30 q35 0 60.5 30t25.5 73v575q0 49 -26.5 76t-61.5 27t-58.5 -30t-23.5 -73v-575z" />
<glyph unicode="p" horiz-adv-x="823" d="M102 -311v1470h234l-2 -106q16 35 43 61q23 23 57.5 42.5t87.5 19.5q43 0 83 -12.5t71 -40t48 -72t17 -105.5q0 -203 -1 -387t-1 -383q0 -37 -13 -72.5t-37.5 -64.5t-59.5 -46.5t-76 -17.5q-61 0 -102 19.5t-66 44.5q-29 27 -43 63v-413h-240zM346 266q0 -43 21.5 -64.5 t56.5 -21.5q72 0 72 82v625q0 41 -21.5 61.5t-56.5 20.5q-31 0 -51.5 -21.5t-20.5 -60.5v-621z" />
<glyph unicode="q" horiz-adv-x="833" d="M82 227v715q0 78 23.5 124t58.5 70.5t72.5 32t66.5 7.5q53 0 88 -19.5t58 -42.5q25 -27 40 -61v106h242v-1472l-242 2v401q-14 -37 -38 -63q-23 -23 -60 -42.5t-92 -19.5q-72 0 -115 29t-65.5 69.5t-29.5 86t-7 77.5zM322 264q0 -47 16 -74.5t65 -27.5q43 0 62.5 31.5 t19.5 72.5v47t-1 78t-1 98.5v106.5v276q0 14 -3 31t-11 30t-23.5 22.5t-42.5 9.5q-41 0 -61 -29t-20 -59v-613z" />
<glyph unicode="r" horiz-adv-x="622" d="M102 0v1159h226v-168q6 0 21.5 33t44 69.5t74.5 62.5q28 16 64 16q23 0 50 -7v-235q-43 9 -80 9q-21 0 -41 -3q-47 -8 -84 -42t-37 -114v-780h-238z" />
<glyph unicode="s" horiz-adv-x="786" d="M82 221v170l237 -2v-131q0 -33 21.5 -56.5t52.5 -23.5q29 0 50.5 23.5t21.5 52.5q-2 14 -2 27v47q0 31 -27.5 61.5t-70.5 62t-91.5 66.5t-91.5 73t-70.5 80t-27.5 91v178q0 55 26.5 99t68.5 75t94.5 46.5t103.5 15.5q55 0 108.5 -17.5t96.5 -48.5t68.5 -73t25.5 -91v-176 h-223v127q0 31 -17.5 50.5t-46.5 19.5t-47 -17.5t-18 -52.5v-70q0 -35 28.5 -64.5t70.5 -60t91 -62.5t91 -71t71 -86t29 -106q-2 -18 -5 -41q-2 -20 -2 -47v-60q0 -66 -28.5 -113.5t-72.5 -79.5t-97.5 -47.5t-104.5 -15.5q-45 0 -99 14.5t-102.5 44t-80 77t-31.5 112.5z" />
<glyph unicode="t" horiz-adv-x="606" d="M41 987v215q25 0 53.5 11.5t53 39t41 75.5t16.5 122v117h190v-391h129v-189h-129v-657q0 -47 17.5 -84t74.5 -37h37v-209h-131q-86 0 -135 20.5t-73.5 55.5t-29.5 80t-5 96v735h-109z" />
<glyph unicode="u" horiz-adv-x="856" d="M102 279v880h250v-885q0 -39 21.5 -62.5t58.5 -23.5q35 0 57.5 24t22.5 64v883h242v-1159h-219v141q-20 -45 -50 -80q-25 -31 -62.5 -55t-88.5 -24q-121 0 -176.5 79.5t-55.5 217.5z" />
<glyph unicode="v" horiz-adv-x="749" d="M41 1159h250l92 -577l96 577h230l-197 -1159h-246z" />
<glyph unicode="w" horiz-adv-x="1122" d="M41 1159h219l96 -631l95 631h213l92 -627l90 627h235l-213 -1159h-219l-96 594l-86 -594h-207z" />
<glyph unicode="x" horiz-adv-x="806" d="M41 0l229 616l-209 543h248l82 -266l88 266h254l-209 -549l242 -610h-254l-111 326l-110 -326h-250z" />
<glyph unicode="y" horiz-adv-x="757" d="M41 1159h248l98 -653l98 653h232q-51 -301 -92 -547q-18 -104 -36 -206.5t-32 -187.5t-25.5 -143.5t-13.5 -74.5q-16 -74 -30.5 -132t-37 -98t-58.5 -60.5t-93 -20.5h-203l-2 194h111q63 0 73 42q3 15 3 33q0 33 -11 75z" />
<glyph unicode="z" horiz-adv-x="782" d="M82 0v213l354 733h-323v213h579v-213l-354 -733h362v-213h-618z" />
<glyph unicode="&#xa3;" horiz-adv-x="1021" d="M102 0v213q96 55 156.5 112.5t93.5 112t43.5 103.5t5.5 90h-268v86h262q-20 45 -58 88t-76 89t-65.5 96t-27.5 110v235q0 76 36 127t91 82t122.5 44.5t129.5 13.5q66 0 130 -16.5t116.5 -52.5t84 -91.5t31.5 -132.5l-2 -191h-241v139q0 70 -28 93.5t-95 23.5 q-39 0 -62.5 -10t-36 -25.5t-16.5 -37t-4 -41.5v-27q0 -12 -1 -26.5t1 -28.5q2 -72 36 -121t74.5 -97.5t74.5 -104.5t36 -138h252v-86h-252q0 -37 -1 -79t-14.5 -91t-44 -105.5t-87.5 -124.5h422v-231h-818z" />
<glyph unicode="&#xa7;" horiz-adv-x="970" d="M-57 504v205h139v118h-139v205h139v213q0 162 100.5 259.5t290.5 97.5q100 0 175 -28t125 -75t74.5 -108.5t24.5 -126.5v-279h-264v191q0 25 -1 57.5t-12 60t-38 47t-78 19.5q-49 0 -74.5 -18.5t-36 -47t-10.5 -64.5v-69v-64.5t2 -64.5h175v-205h-175v-118h175v-205h-177 v-137q0 -33 6.5 -63t20.5 -53.5t40 -37.5t64 -14q41 0 67 16t39 41t18 52.5t5 49.5v254h271v-266q0 -106 -33 -180t-90 -119t-132 -65.5t-157 -20.5q-68 0 -138.5 22.5t-127.5 68.5t-93 118t-36 172v162h-139z" />
<glyph unicode="&#xab;" horiz-adv-x="679" d="M102 506v186l224 223l2 -215l-111 -112l107 -103v-192zM360 520v191l218 209v-230l-109 -98l109 -105v-186z" />
<glyph unicode="&#xad;" horiz-adv-x="608" d="M104 502v203h29h373v-203h-402z" />
<glyph unicode="&#xbb;" horiz-adv-x="675" d="M102 291v221l105 111l-105 96v209l215 -221l-2 -218zM352 289v227l109 109l-107 92v207l6 4l213 -215v-197z" />
<glyph unicode="&#xe5;" horiz-adv-x="849" d="M102 215v145q0 86 39 139.5t99.5 94.5t131 80t136.5 98v107q0 16 -2 33.5t-10.5 33t-24.5 24.5t-45 9q-27 0 -42 -9t-22.5 -23.5t-9.5 -33t-2 -36.5v-93h-233v76q0 61 15 118.5t53 101.5t100.5 70t158.5 26q88 0 146.5 -30t92.5 -76t48 -101.5t14 -108.5v-524 q0 -162 3 -336h-222v115q-10 -4 -21 -25.5t-30.5 -45.5t-52.5 -43t-82 -19q-127 0 -182.5 67.5t-55.5 165.5zM244 1440q0 39 14 73.5t40 60t59.5 40t72.5 14.5q23 0 54.5 -9t61 -30.5t50 -58.5t20.5 -92q0 -35 -13 -67t-37.5 -58.5t-59.5 -42t-76 -15.5q-39 0 -72.5 14.5 t-59.5 40t-40 59.5t-14 71zM338 305q0 -59 15.5 -101t68.5 -42q35 0 54.5 18.5t27.5 46t9 60t1 63.5v215q-43 -25 -75.5 -42t-55.5 -41.5t-34 -64.5t-11 -112zM348 1442q0 -27 17.5 -54.5t64.5 -27.5q31 0 47.5 12t23.5 26.5t8 20.5l3 19q0 8 -2 22.5t-10 28.5t-23.5 24.5 t-42.5 10.5q-10 0 -24.5 -3t-27.5 -12.5t-23.5 -25t-10.5 -41.5z" />
<glyph unicode="&#x2000;" horiz-adv-x="889" />
<glyph unicode="&#x2001;" horiz-adv-x="1778" />
<glyph unicode="&#x2002;" horiz-adv-x="889" />
<glyph unicode="&#x2003;" horiz-adv-x="1778" />
<glyph unicode="&#x2004;" horiz-adv-x="592" />
<glyph unicode="&#x2005;" horiz-adv-x="444" />
<glyph unicode="&#x2006;" horiz-adv-x="296" />
<glyph unicode="&#x2007;" horiz-adv-x="296" />
<glyph unicode="&#x2008;" horiz-adv-x="222" />
<glyph unicode="&#x2009;" horiz-adv-x="355" />
<glyph unicode="&#x200a;" horiz-adv-x="98" />
<glyph unicode="&#x2010;" horiz-adv-x="608" d="M104 502v203h29h373v-203h-402z" />
<glyph unicode="&#x2011;" horiz-adv-x="608" d="M104 502v203h29h373v-203h-402z" />
<glyph unicode="&#x2012;" horiz-adv-x="608" d="M104 502v203h29h373v-203h-402z" />
<glyph unicode="&#x2013;" horiz-adv-x="1024" d="M0 666v143h1022v-143h-1022z" />
<glyph unicode="&#x2014;" horiz-adv-x="1024" />
<glyph unicode="&#x2018;" horiz-adv-x="389" d="M102 1221v202q0 18 2 48t13.5 60t34 50.5t63.5 20.5h113v-89h-74q-23 0 -35 -14t-16 -34.5t-4 -43v-37.5h114v-243h-209q-2 35 -2 80z" />
<glyph unicode="&#x2019;" horiz-adv-x="389" d="M102 1141v88h74q23 0 34 14t15 34.5t4 42v38.5h-112v244h209v-80q0 -39 1 -90.5t1 -112.5q0 -18 -2 -48t-13.5 -59.5t-34 -50t-63.5 -20.5h-113z" />
<glyph unicode="&#x201c;" horiz-adv-x="745" d="M102 1221v202q0 18 2 48t13.5 60t34 50.5t63.5 20.5h113v-89h-74q-23 0 -35 -14t-16 -34.5t-4 -43v-37.5h114v-243h-209q-2 35 -2 80zM418 1221v202q0 18 2 48t13 60t33.5 50.5t63.5 20.5h113v-89h-74q-23 0 -34 -14t-15 -34.5t-4 -43v-37.5h113v-243h-209q-2 35 -2 80z " />
<glyph unicode="&#x201d;" horiz-adv-x="745" d="M102 1141v88h74q23 0 34 14t15 34.5t4 42v38.5h-112v244h209v-80q0 -39 1 -90.5t1 -112.5q0 -18 -2 -48t-13.5 -59.5t-34 -50t-63.5 -20.5h-113zM418 1141v88h74q23 0 34 14t16 34.5t5 42v38.5h-115v244h209v-80q0 -39 1 -90.5t1 -112.5q0 -18 -2 -48t-13.5 -59.5 t-34 -50t-63.5 -20.5h-112z" />
<glyph unicode="&#x202f;" horiz-adv-x="355" />
<glyph unicode="&#x205f;" horiz-adv-x="444" />
<glyph unicode="&#x25fc;" horiz-adv-x="1157" d="M0 0v1157h1157v-1157h-1157z" />
</font>
</defs>
</svg>
